<mxfile host="app.diagrams.net" agent="Mozilla/5.0 (Windows NT 10.0; Win64; x64) AppleWebKit/537.36 (KHTML, like Gecko) Chrome/131.0.0.0 Safari/537.36" version="26.0.7">
  <diagram name="Pagina-1" id="koA0Wh0rH4pmsfrimsIM">
    <mxGraphModel dx="1050" dy="1691" grid="1" gridSize="10" guides="1" tooltips="1" connect="1" arrows="1" fold="1" page="1" pageScale="1" pageWidth="827" pageHeight="1169" math="0" shadow="0">
      <root>
        <mxCell id="0" />
        <mxCell id="1" parent="0" />
        <mxCell id="RH2wh0lI7cYg3TcxBH6x-36" style="edgeStyle=orthogonalEdgeStyle;rounded=0;orthogonalLoop=1;jettySize=auto;html=1;exitX=0.5;exitY=1;exitDx=0;exitDy=0;entryX=0.5;entryY=0;entryDx=0;entryDy=0;" edge="1" parent="1" source="RH2wh0lI7cYg3TcxBH6x-1" target="RH2wh0lI7cYg3TcxBH6x-21">
          <mxGeometry relative="1" as="geometry" />
        </mxCell>
        <mxCell id="RH2wh0lI7cYg3TcxBH6x-1" value="START" style="ellipse;whiteSpace=wrap;html=1;" vertex="1" parent="1">
          <mxGeometry x="354" y="-50" width="120" height="80" as="geometry" />
        </mxCell>
        <mxCell id="RH2wh0lI7cYg3TcxBH6x-5" value="" style="edgeStyle=orthogonalEdgeStyle;rounded=0;orthogonalLoop=1;jettySize=auto;html=1;" edge="1" parent="1" source="RH2wh0lI7cYg3TcxBH6x-2" target="RH2wh0lI7cYg3TcxBH6x-4">
          <mxGeometry relative="1" as="geometry" />
        </mxCell>
        <mxCell id="RH2wh0lI7cYg3TcxBH6x-2" value="READ N" style="shape=parallelogram;perimeter=parallelogramPerimeter;whiteSpace=wrap;html=1;fixedSize=1;" vertex="1" parent="1">
          <mxGeometry x="354" y="190" width="120" height="60" as="geometry" />
        </mxCell>
        <mxCell id="RH2wh0lI7cYg3TcxBH6x-9" value="" style="edgeStyle=orthogonalEdgeStyle;rounded=0;orthogonalLoop=1;jettySize=auto;html=1;" edge="1" parent="1" source="RH2wh0lI7cYg3TcxBH6x-4" target="RH2wh0lI7cYg3TcxBH6x-8">
          <mxGeometry relative="1" as="geometry" />
        </mxCell>
        <mxCell id="RH2wh0lI7cYg3TcxBH6x-10" value="TRUE" style="edgeLabel;html=1;align=center;verticalAlign=middle;resizable=0;points=[];" vertex="1" connectable="0" parent="RH2wh0lI7cYg3TcxBH6x-9">
          <mxGeometry x="-0.1714" y="-1" relative="1" as="geometry">
            <mxPoint as="offset" />
          </mxGeometry>
        </mxCell>
        <mxCell id="RH2wh0lI7cYg3TcxBH6x-38" style="edgeStyle=orthogonalEdgeStyle;rounded=0;orthogonalLoop=1;jettySize=auto;html=1;exitX=0.5;exitY=1;exitDx=0;exitDy=0;entryX=0.5;entryY=0;entryDx=0;entryDy=0;" edge="1" parent="1" source="RH2wh0lI7cYg3TcxBH6x-4" target="RH2wh0lI7cYg3TcxBH6x-24">
          <mxGeometry relative="1" as="geometry" />
        </mxCell>
        <mxCell id="RH2wh0lI7cYg3TcxBH6x-39" value="FALSE" style="edgeLabel;html=1;align=center;verticalAlign=middle;resizable=0;points=[];" vertex="1" connectable="0" parent="RH2wh0lI7cYg3TcxBH6x-38">
          <mxGeometry x="-0.4844" y="4" relative="1" as="geometry">
            <mxPoint as="offset" />
          </mxGeometry>
        </mxCell>
        <mxCell id="RH2wh0lI7cYg3TcxBH6x-4" value="N&amp;lt;=0" style="rhombus;whiteSpace=wrap;html=1;" vertex="1" parent="1">
          <mxGeometry x="374" y="320" width="80" height="80" as="geometry" />
        </mxCell>
        <mxCell id="RH2wh0lI7cYg3TcxBH6x-11" style="edgeStyle=orthogonalEdgeStyle;rounded=0;orthogonalLoop=1;jettySize=auto;html=1;exitX=0.5;exitY=0;exitDx=0;exitDy=0;entryX=0;entryY=0.5;entryDx=0;entryDy=0;" edge="1" parent="1" source="RH2wh0lI7cYg3TcxBH6x-8" target="RH2wh0lI7cYg3TcxBH6x-2">
          <mxGeometry relative="1" as="geometry">
            <Array as="points">
              <mxPoint x="227" y="220" />
            </Array>
          </mxGeometry>
        </mxCell>
        <mxCell id="RH2wh0lI7cYg3TcxBH6x-8" value="WRITE &quot;INSERISCI UN NUMERO POSITIVO&quot;" style="shape=parallelogram;perimeter=parallelogramPerimeter;whiteSpace=wrap;html=1;fixedSize=1;" vertex="1" parent="1">
          <mxGeometry x="140" y="330" width="174" height="60" as="geometry" />
        </mxCell>
        <mxCell id="RH2wh0lI7cYg3TcxBH6x-37" style="edgeStyle=orthogonalEdgeStyle;rounded=0;orthogonalLoop=1;jettySize=auto;html=1;exitX=0.5;exitY=1;exitDx=0;exitDy=0;entryX=0.5;entryY=0;entryDx=0;entryDy=0;" edge="1" parent="1" source="RH2wh0lI7cYg3TcxBH6x-21" target="RH2wh0lI7cYg3TcxBH6x-2">
          <mxGeometry relative="1" as="geometry" />
        </mxCell>
        <mxCell id="RH2wh0lI7cYg3TcxBH6x-21" value="J = 1" style="whiteSpace=wrap;html=1;" vertex="1" parent="1">
          <mxGeometry x="354" y="80" width="120" height="60" as="geometry" />
        </mxCell>
        <mxCell id="RH2wh0lI7cYg3TcxBH6x-30" value="" style="edgeStyle=orthogonalEdgeStyle;rounded=0;orthogonalLoop=1;jettySize=auto;html=1;" edge="1" parent="1" source="RH2wh0lI7cYg3TcxBH6x-24" target="RH2wh0lI7cYg3TcxBH6x-29">
          <mxGeometry relative="1" as="geometry" />
        </mxCell>
        <mxCell id="RH2wh0lI7cYg3TcxBH6x-24" value="J = J**2" style="whiteSpace=wrap;html=1;" vertex="1" parent="1">
          <mxGeometry x="354" y="490" width="120" height="60" as="geometry" />
        </mxCell>
        <mxCell id="RH2wh0lI7cYg3TcxBH6x-35" value="" style="edgeStyle=orthogonalEdgeStyle;rounded=0;orthogonalLoop=1;jettySize=auto;html=1;" edge="1" parent="1" source="RH2wh0lI7cYg3TcxBH6x-25" target="RH2wh0lI7cYg3TcxBH6x-34">
          <mxGeometry relative="1" as="geometry" />
        </mxCell>
        <mxCell id="RH2wh0lI7cYg3TcxBH6x-25" value="WRITE J" style="shape=parallelogram;perimeter=parallelogramPerimeter;whiteSpace=wrap;html=1;fixedSize=1;" vertex="1" parent="1">
          <mxGeometry x="354" y="735" width="120" height="60" as="geometry" />
        </mxCell>
        <mxCell id="RH2wh0lI7cYg3TcxBH6x-31" style="edgeStyle=orthogonalEdgeStyle;rounded=0;orthogonalLoop=1;jettySize=auto;html=1;exitX=0.5;exitY=1;exitDx=0;exitDy=0;entryX=0.5;entryY=0;entryDx=0;entryDy=0;" edge="1" parent="1" source="RH2wh0lI7cYg3TcxBH6x-29" target="RH2wh0lI7cYg3TcxBH6x-25">
          <mxGeometry relative="1" as="geometry" />
        </mxCell>
        <mxCell id="RH2wh0lI7cYg3TcxBH6x-29" value="J += 1" style="whiteSpace=wrap;html=1;" vertex="1" parent="1">
          <mxGeometry x="354" y="610" width="120" height="60" as="geometry" />
        </mxCell>
        <mxCell id="RH2wh0lI7cYg3TcxBH6x-40" style="edgeStyle=orthogonalEdgeStyle;rounded=0;orthogonalLoop=1;jettySize=auto;html=1;exitX=1;exitY=0.5;exitDx=0;exitDy=0;entryX=1;entryY=0.5;entryDx=0;entryDy=0;" edge="1" parent="1" source="RH2wh0lI7cYg3TcxBH6x-34" target="RH2wh0lI7cYg3TcxBH6x-24">
          <mxGeometry relative="1" as="geometry">
            <Array as="points">
              <mxPoint x="580" y="905" />
              <mxPoint x="580" y="520" />
            </Array>
          </mxGeometry>
        </mxCell>
        <mxCell id="RH2wh0lI7cYg3TcxBH6x-41" value="FALSE" style="edgeLabel;html=1;align=center;verticalAlign=middle;resizable=0;points=[];" vertex="1" connectable="0" parent="RH2wh0lI7cYg3TcxBH6x-40">
          <mxGeometry x="-0.825" y="-2" relative="1" as="geometry">
            <mxPoint as="offset" />
          </mxGeometry>
        </mxCell>
        <mxCell id="RH2wh0lI7cYg3TcxBH6x-43" style="edgeStyle=orthogonalEdgeStyle;rounded=0;orthogonalLoop=1;jettySize=auto;html=1;exitX=0.5;exitY=1;exitDx=0;exitDy=0;entryX=0.5;entryY=0;entryDx=0;entryDy=0;" edge="1" parent="1" source="RH2wh0lI7cYg3TcxBH6x-34" target="RH2wh0lI7cYg3TcxBH6x-42">
          <mxGeometry relative="1" as="geometry" />
        </mxCell>
        <mxCell id="RH2wh0lI7cYg3TcxBH6x-44" value="TRUE" style="edgeLabel;html=1;align=center;verticalAlign=middle;resizable=0;points=[];" vertex="1" connectable="0" parent="RH2wh0lI7cYg3TcxBH6x-43">
          <mxGeometry x="-0.1385" y="-2" relative="1" as="geometry">
            <mxPoint as="offset" />
          </mxGeometry>
        </mxCell>
        <mxCell id="RH2wh0lI7cYg3TcxBH6x-34" value="J == N" style="rhombus;whiteSpace=wrap;html=1;" vertex="1" parent="1">
          <mxGeometry x="374" y="865" width="80" height="80" as="geometry" />
        </mxCell>
        <mxCell id="RH2wh0lI7cYg3TcxBH6x-42" value="END" style="ellipse;whiteSpace=wrap;html=1;" vertex="1" parent="1">
          <mxGeometry x="354" y="1010" width="120" height="80" as="geometry" />
        </mxCell>
      </root>
    </mxGraphModel>
  </diagram>
</mxfile>
